<?xml version="1.0" encoding="UTF-8" standalone="no"?>
<!-- Created with Inkscape (http://www.inkscape.org/) -->

<svg
   xmlns:dc="http://purl.org/dc/elements/1.1/"
   xmlns:cc="http://creativecommons.org/ns#"
   xmlns:rdf="http://www.w3.org/1999/02/22-rdf-syntax-ns#"
   xmlns:svg="http://www.w3.org/2000/svg"
   xmlns="http://www.w3.org/2000/svg"
   xmlns:sodipodi="http://sodipodi.sourceforge.net/DTD/sodipodi-0.dtd"
   xmlns:inkscape="http://www.inkscape.org/namespaces/inkscape"
   version="1.1"
   width="40"
   height="40"
   viewBox="0 0 40 40"
   id="Calque_1"
   xml:space="preserve"
   inkscape:version="0.48.3.1 r9886"
   sodipodi:docname="func.svg"><sodipodi:namedview
   pagecolor="#ffffff"
   bordercolor="#666666"
   borderopacity="1"
   objecttolerance="10"
   gridtolerance="10"
   guidetolerance="10"
   inkscape:pageopacity="0"
   inkscape:pageshadow="2"
   inkscape:window-width="1343"
   inkscape:window-height="931"
   id="namedview11"
   showgrid="true"
   inkscape:zoom="4.17193"
   inkscape:cx="-30.935053"
   inkscape:cy="68.545354"
   inkscape:window-x="2289"
   inkscape:window-y="88"
   inkscape:window-maximized="0"
   inkscape:current-layer="Calque_1"><inkscape:grid
     type="xygrid"
     id="grid2988"
     empspacing="5"
     visible="true"
     enabled="true"
     snapvisiblegridlinesonly="true" /></sodipodi:namedview><metadata
   id="metadata29"><rdf:RDF><cc:Work
       rdf:about=""><dc:format>image/svg+xml</dc:format><dc:type
         rdf:resource="http://purl.org/dc/dcmitype/StillImage" /><dc:title /></cc:Work></rdf:RDF></metadata><defs
   id="defs27"><inkscape:path-effect
     effect="spiro"
     id="path-effect3831"
     is_visible="true" /><inkscape:path-effect
     effect="spiro"
     id="path-effect3017"
     is_visible="true" /><inkscape:path-effect
     effect="spiro"
     id="path-effect3013"
     is_visible="true" /><inkscape:path-effect
     effect="spiro"
     id="path-effect3009"
     is_visible="true" /><inkscape:path-effect
     effect="spiro"
     id="path-effect3014"
     is_visible="true" /><inkscape:path-effect
     effect="spiro"
     id="path-effect3831-7"
     is_visible="true" /><inkscape:path-effect
     effect="spiro"
     id="path-effect3831-7-9"
     is_visible="true" /><inkscape:path-effect
     effect="spiro"
     id="path-effect3831-7-9-7"
     is_visible="true" /></defs>






<g
   style="font-size:18.56750488px;font-style:normal;font-variant:normal;font-weight:normal;font-stretch:normal;line-height:125%;letter-spacing:0px;word-spacing:0px;fill:#800000;fill-opacity:1;stroke:none;font-family:Serif;-inkscape-font-specification:Serif"
   id="text3823"
   transform="matrix(1.4287767,0,0,1.4287767,-8.9592545,-8.8948853)"><path
     d="m 16.872622,13.61812 c 0,-0.686997 -0.686999,-1.206888 -1.596805,-1.206888 -0.89124,0 -1.596806,0.389918 -2.265236,1.206888 -0.575592,0.742699 -0.965511,1.615374 -1.522535,3.434988 l -1.7082108,0 -0.1299725,0.59416 1.6710753,0 -1.6339403,7.798352 c -0.4270522,2.005289 -1.0212136,3.007936 -1.801048,3.007936 -0.2228098,0 -0.3713501,-0.129973 -0.3713501,-0.29708 0,-0.07427 0.018568,-0.111405 0.07427,-0.204243 0.07427,-0.111405 0.092838,-0.185675 0.092838,-0.29708 0,-0.389917 -0.3342155,-0.705565 -0.7241327,-0.705565 -0.3899172,0 -0.6869977,0.334216 -0.6869977,0.761268 0,0.649862 0.631296,1.132618 1.4668329,1.132618 1.6525063,0 2.9336659,-1.819619 3.7135009,-5.254604 l 1.33686,-5.941602 2.023858,0 0.111405,-0.59416 -2.00529,0 c 0.538457,-2.933663 1.225456,-4.233391 2.265235,-4.233391 0.259945,0 0.408485,0.09284 0.408485,0.241377 0,0 -0.01857,0.09284 -0.07427,0.167108 -0.09284,0.14854 -0.111405,0.241378 -0.111405,0.389918 0,0.445619 0.278513,0.7427 0.686998,0.7427 0.427052,0 0.779835,-0.334216 0.779835,-0.7427"
     style="font-style:italic;fill:#800000;font-family:TeXGyreTermes;-inkscape-font-specification:TeXGyreTermes Italic"
     id="path3897"
     inkscape:connector-curvature="0" /><path
     d="m 17.101815,28.249313 c -0.686997,-1.893883 -0.891241,-3.026505 -0.891241,-4.827551 0,-2.209531 0.519891,-4.846121 1.355428,-6.907112 0.612727,-1.485399 1.206889,-2.376642 2.432343,-3.657798 l -0.241377,-0.278513 c -2.413773,2.190964 -3.360719,3.416423 -4.140554,5.347442 -0.482754,1.169751 -0.686997,2.302372 -0.686997,3.732068 0,1.392562 0.204243,2.747992 0.612727,4.010581 0.259945,0.835537 0.538459,1.429699 1.225456,2.692288 l 0.334215,-0.111405"
     style="font-style:italic;fill:#800000;font-family:TeXGyreTermes;-inkscape-font-specification:TeXGyreTermes Italic"
     id="path3899"
     inkscape:connector-curvature="0" /><path
     d="m 28.07492,23.087547 -0.259945,-0.14854 c -0.14854,0.185675 -0.241378,0.278513 -0.408485,0.501323 -0.427053,0.557024 -0.631296,0.7427 -0.872673,0.7427 -0.259945,0 -0.427053,-0.241378 -0.557025,-0.761268 -0.03713,-0.167107 -0.0557,-0.259945 -0.07427,-0.29708 -0.44562,-1.745344 -0.668431,-2.747991 -0.668431,-3.026503 0.81697,-1.429697 1.485401,-2.246668 1.819616,-2.246668 0.111405,0 0.278513,0.0557 0.44562,0.14854 0.22281,0.129972 0.352783,0.167107 0.51989,0.167107 0.37135,0 0.631295,-0.278513 0.631295,-0.66843 0,-0.408485 -0.315648,-0.686998 -0.761267,-0.686998 -0.81697,0 -1.50397,0.668433 -2.803694,2.655154 l -0.204242,-1.021213 c -0.259945,-1.262589 -0.464188,-1.633941 -0.96551,-1.633941 -0.427053,0 -1.021214,0.148541 -2.172398,0.538458 l -0.204243,0.07427 0.07427,0.278513 0.315648,-0.07427 c 0.352782,-0.09284 0.575592,-0.129973 0.724132,-0.129973 0.464187,0 0.575593,0.167109 0.835538,1.281158 l 0.538458,2.283803 -1.522536,2.172398 c -0.389917,0.557025 -0.7427,0.89124 -0.946942,0.89124 -0.111405,0 -0.297081,-0.0557 -0.482756,-0.167107 -0.241377,-0.129973 -0.427052,-0.185675 -0.59416,-0.185675 -0.371349,0 -0.631295,0.278513 -0.631295,0.649862 0,0.482755 0.352783,0.779836 0.928375,0.779836 0.575592,0 0.798404,-0.167109 1.726778,-1.281158 l 1.671076,-2.190966 0.557025,2.228101 c 0.241377,0.965509 0.482756,1.244023 1.076915,1.244023 0.705565,0 1.188322,-0.445622 2.265236,-2.116696"
     style="font-style:italic;fill:#800000;font-family:TeXGyreTermes;-inkscape-font-specification:TeXGyreTermes Italic"
     id="path3901"
     inkscape:connector-curvature="0" /><path
     d="m 33.206225,23.124682 c 0.51989,-1.225454 0.7427,-2.395209 0.7427,-3.769203 0,-1.002645 -0.129973,-2.079562 -0.352782,-3.119341 -0.315648,-1.373994 -0.612729,-2.09813 -1.485401,-3.657799 l -0.352782,0.09284 c 0.631294,1.503966 0.909807,3.007937 0.909807,4.864686 0,2.302368 -0.612728,5.236038 -1.4854,7.222759 -0.575592,1.26259 -1.132619,2.079562 -2.302371,3.305016 l 0.241378,0.278513 c 2.302368,-2.005289 3.249314,-3.193613 4.084851,-5.217469"
     style="font-style:italic;fill:#800000;font-family:TeXGyreTermes;-inkscape-font-specification:TeXGyreTermes Italic"
     id="path3903"
     inkscape:connector-curvature="0" /></g></svg>