<?xml version="1.0" encoding="UTF-8" standalone="no"?>
<!-- Created with Inkscape (http://www.inkscape.org/) -->

<svg
   xmlns:dc="http://purl.org/dc/elements/1.1/"
   xmlns:cc="http://creativecommons.org/ns#"
   xmlns:rdf="http://www.w3.org/1999/02/22-rdf-syntax-ns#"
   xmlns:svg="http://www.w3.org/2000/svg"
   xmlns="http://www.w3.org/2000/svg"
   version="1.1"
   width="40"
   height="40"
   viewBox="0 0 40 40"
   id="Calque_1"
   xml:space="preserve"><metadata
   id="metadata29"><rdf:RDF><cc:Work
       rdf:about=""><dc:format>image/svg+xml</dc:format><dc:type
         rdf:resource="http://purl.org/dc/dcmitype/StillImage" /><dc:title></dc:title></cc:Work></rdf:RDF></metadata><defs
   id="defs27" />






<path
   d="m 20,0 0,4"
   id="path3004"
   style="fill:none;stroke:#999999;stroke-width:1px;stroke-linecap:round;stroke-linejoin:round;stroke-opacity:1" /><path
   d="m 40,20 -4,0"
   id="path3008"
   style="fill:none;stroke:#999999;stroke-width:1px;stroke-linecap:round;stroke-linejoin:round;stroke-opacity:1" /><path
   d="m 20,40 0,-4"
   id="path3012"
   style="fill:none;stroke:#999999;stroke-width:1px;stroke-linecap:round;stroke-linejoin:round;stroke-opacity:1" /><path
   d="m 0,20 4,0"
   id="path3016"
   style="fill:none;stroke:#999999;stroke-width:1px;stroke-linecap:round;stroke-linejoin:round;stroke-opacity:1" /><path
   d="M 39,20 A 19,19.17241 0 0 1 1,20 19,19.17241 0 1 1 39,20 z"
   id="path2992"
   style="fill:none;stroke:#ff0000;stroke-width:1.65999997;stroke-linecap:round;stroke-linejoin:round;stroke-miterlimit:4;stroke-opacity:1;stroke-dasharray:none;stroke-dashoffset:0" /><path
   d="m 22,20 a 2,2 0 1 1 -4,0 2,2 0 1 1 4,0 z"
   id="path2994"
   style="fill:#000000;stroke:#000000;stroke-width:1;stroke-linecap:round;stroke-linejoin:round;stroke-miterlimit:4;stroke-opacity:1;stroke-dasharray:none;stroke-dashoffset:0" /><path
   d="m 12,12 8,8 0,0 0,0 0,0 9,-14"
   id="path2996"
   style="fill:none;stroke:#000000;stroke-width:1.60000002;stroke-linecap:round;stroke-linejoin:round;stroke-miterlimit:4;stroke-opacity:1;stroke-dasharray:none" /></svg>