<?xml version="1.0" encoding="UTF-8" standalone="no"?>
<!-- Generator: Adobe Illustrator 14.0.0, SVG Export Plug-In . SVG Version: 6.00 Build 43363)  -->

<svg
   xmlns:dc="http://purl.org/dc/elements/1.1/"
   xmlns:cc="http://creativecommons.org/ns#"
   xmlns:rdf="http://www.w3.org/1999/02/22-rdf-syntax-ns#"
   xmlns:svg="http://www.w3.org/2000/svg"
   xmlns="http://www.w3.org/2000/svg"
   xmlns:sodipodi="http://sodipodi.sourceforge.net/DTD/sodipodi-0.dtd"
   xmlns:inkscape="http://www.inkscape.org/namespaces/inkscape"
   version="1.1"
   id="Calque_1"
   x="0px"
   y="0px"
   width="40"
   height="40"
   viewBox="0 0 40 40"
   enable-background="new 0 0 40 40"
   xml:space="preserve"
   inkscape:version="0.48.3.1 r9886"
   sodipodi:docname="SystemH.svg"><metadata
   id="metadata29"><rdf:RDF><cc:Work
       rdf:about=""><dc:format>image/svg+xml</dc:format><dc:type
         rdf:resource="http://purl.org/dc/dcmitype/StillImage" /><dc:title /></cc:Work></rdf:RDF></metadata><defs
   id="defs27" /><sodipodi:namedview
   pagecolor="#ffffff"
   bordercolor="#666666"
   borderopacity="1"
   objecttolerance="10"
   gridtolerance="10"
   guidetolerance="10"
   inkscape:pageopacity="0"
   inkscape:pageshadow="2"
   inkscape:window-width="1238"
   inkscape:window-height="890"
   id="namedview25"
   showgrid="true"
   inkscape:zoom="8.34386"
   inkscape:cx="1.0919834"
   inkscape:cy="27.347939"
   inkscape:window-x="585"
   inkscape:window-y="21"
   inkscape:window-maximized="0"
   inkscape:current-layer="Calque_1"><inkscape:grid
     type="xygrid"
     id="grid3006"
     empspacing="5"
     visible="true"
     enabled="true"
     snapvisiblegridlinesonly="true" /></sodipodi:namedview>






<path
   style="fill:#7c7c7c;fill-opacity:1;stroke:#000000;stroke-width:0.69999999;stroke-linecap:round;stroke-linejoin:round;stroke-miterlimit:4;stroke-opacity:0.50196078;stroke-dasharray:none"
   d="M 5,40 5,0"
   id="path3772"
   inkscape:connector-curvature="0"
   sodipodi:nodetypes="cc" /><path
   style="fill:none;stroke:#000000;stroke-width:0.69999999000000002;stroke-linecap:round;stroke-linejoin:round;stroke-miterlimit:4;stroke-opacity:0.50196078000000000;stroke-dasharray:none"
   d="m 0,20 40,0"
   id="path3776"
   inkscape:connector-curvature="0"
   sodipodi:nodetypes="cc" /><path
   style="fill:none;stroke:#808080;stroke-width:0.69999999;stroke-linecap:round;stroke-linejoin:round;stroke-miterlimit:4;stroke-opacity:1;stroke-dasharray:none"
   d="M 3,4 5,0 7,4"
   id="path3777"
   inkscape:connector-curvature="0"
   sodipodi:nodetypes="ccc" /><path
   style="fill:none;stroke:#808080;stroke-width:0.69999999000000002;stroke-linecap:round;stroke-linejoin:round;stroke-miterlimit:4;stroke-opacity:1;stroke-dasharray:none"
   d="m 36,18 4,2 -4,2"
   id="path3777-2"
   inkscape:connector-curvature="0"
   sodipodi:nodetypes="ccc" /><path
   style="fill:none;stroke:#782121;stroke-width:1px;stroke-linecap:round;stroke-linejoin:round;stroke-opacity:1"
   d="m 5,7 1,1 1,-2 1,3 1,-4 1,7 1,-9 1,27 1,-2 1,5 1,-6 1,10 1,-10 1,11 1,-32 1,4 1,-6 1,7 1,-8 1,8 1,-8 1,29 1,-4 1,8 1,-8 c 0,0 1,11 1,10 0,-1 1,-31 1,-31 l 1,2 1,-4 1,5 1,-7 1,8"
   id="path2989"
   inkscape:connector-curvature="0"
   sodipodi:nodetypes="ccccccccccccccc" /></svg>