<?xml version="1.0" encoding="UTF-8" standalone="no"?>
<!-- Created with Inkscape (http://www.inkscape.org/) -->

<svg
   xmlns:dc="http://purl.org/dc/elements/1.1/"
   xmlns:cc="http://creativecommons.org/ns#"
   xmlns:rdf="http://www.w3.org/1999/02/22-rdf-syntax-ns#"
   xmlns:svg="http://www.w3.org/2000/svg"
   xmlns="http://www.w3.org/2000/svg"
   xmlns:sodipodi="http://sodipodi.sourceforge.net/DTD/sodipodi-0.dtd"
   xmlns:inkscape="http://www.inkscape.org/namespaces/inkscape"
   id="svg2"
   version="1.1"
   inkscape:version="0.91 r"
   xml:space="preserve"
   width="625.63751"
   height="230.1375"
   viewBox="0 0 625.63751 230.1375"
   sodipodi:docname="pse_logo.svg"><metadata
     id="metadata8"><rdf:RDF><cc:Work
         rdf:about=""><dc:format>image/svg+xml</dc:format><dc:type
           rdf:resource="http://purl.org/dc/dcmitype/StillImage" /><dc:title></dc:title></cc:Work></rdf:RDF></metadata><defs
     id="defs6" /><sodipodi:namedview
     pagecolor="#ffffff"
     bordercolor="#666666"
     borderopacity="1"
     objecttolerance="10"
     gridtolerance="10"
     guidetolerance="10"
     inkscape:pageopacity="0"
     inkscape:pageshadow="2"
     inkscape:window-width="1095"
     inkscape:window-height="627"
     id="namedview4"
     showgrid="false"
     inkscape:zoom="0.58500329"
     inkscape:cx="395.72427"
     inkscape:cy="115.06875"
     inkscape:window-x="0"
     inkscape:window-y="24"
     inkscape:window-maximized="0"
     inkscape:current-layer="g10" /><g
     id="g10"
     inkscape:groupmode="layer"
     inkscape:label="ink_ext_XXXXXX"
     transform="matrix(1.25,0,0,-1.25,0,230.1375)"><g
       id="g12"
       transform="scale(0.1,0.1)"><path
         d="m 1683.57,1111.81 537.41,0 c 98.76,177.71 220.73,460.96 327.75,608.22 52.93,72.91 95.17,110.95 179.7,120.67 -150.65,-1.55 -268.99,1.48 -419.49,0 -101.23,-1.04 -177.22,11.37 -239.34,-78.66 l -386.03,-650.23"
         style="fill:#7f7d7e;fill-opacity:1;fill-rule:evenodd;stroke:none"
         id="path14"
         inkscape:connector-curvature="0" /><path
         d="m 3157.48,1266.05 -454.02,0 c -81.02,145.86 -166.88,354.84 -254.67,475.69 -43.42,59.78 -104.58,91.01 -173.96,99 123.57,-1.22 247.16,1.21 370.73,0 83.13,-0.85 149.1,11.85 196.45,-64.61 l 315.47,-510.08"
         style="fill:#d1d3d4;fill-opacity:1;fill-rule:evenodd;stroke:none"
         id="path16"
         inkscape:connector-curvature="0" /><path
         d="m 2205.51,1086.73 -538.13,0 C 1568.5,908.984 1456.64,654.359 1349.69,507.148 c -52.98,-72.91 -96.15,-111 -180.54,-120.609 150.56,1.481 269.8,-1.5 420.33,0 101.18,0.941 181.72,-14.469 239.26,78.59 l 376.77,621.601"
         style="fill:#f2581a;fill-opacity:1;fill-rule:evenodd;stroke:none"
         id="path18"
         inkscape:connector-curvature="0" /><path
         d="m 1449.69,485.398 c -87.82,120.993 -183.83,329.641 -275.48,487.93 L 886.813,1459.62 c -47.051,75.94 -112.602,63.34 -195.114,64.13 -122.719,1.26 -214.336,-1.23 -337.008,0 68.789,-7.91 98.375,-38.87 141.539,-98.27 121.344,-167.14 184.395,-331.37 263.528,-470.886 L 1056.41,451.039 c 47.3,-76.461 113.33,-63.758 196.35,-64.609 123.59,-1.301 247.12,1.23 370.75,0 -69.23,7.949 -130.43,39.121 -173.82,98.968"
         style="fill:#de3123;fill-opacity:1;fill-rule:evenodd;stroke:none"
         id="path20"
         inkscape:connector-curvature="0" /><path
         d="m 0,1055.34 370.02,0 c 66.117,118.96 136.109,289.18 207.707,387.82 35.41,48.73 85.211,74.12 141.703,80.69 -100.7,-1.04 -201.371,1 -302.223,0 -67.656,-0.69 -121.48,9.67 -160.066,-52.67 L 0,1055.34"
         style="fill:#f2581a;fill-opacity:1;fill-rule:evenodd;stroke:none"
         id="path22"
         inkscape:connector-curvature="0" /><path
         d="m 2806.96,891.555 0,-314.664 c 58.44,-64.43 139.36,-112.379 236.75,-112.379 142.35,0 245.74,92.898 245.74,269.707 0,176.812 -103.39,269.721 -245.74,269.721 -97.39,0 -178.31,-47.952 -236.75,-112.385 z m 0,-440.535 0,-382.0903 C 2806.96,29.9688 2777,0 2738.04,0 c -37.46,0 -67.42,29.9688 -67.42,68.9297 l 0,987.4503 c 0,37.46 29.96,67.43 67.42,67.43 38.96,0 68.92,-29.97 68.92,-67.43 l 0,-38.96 c 68.94,71.92 151.35,113.88 256.23,113.88 181.31,0 362.62,-142.347 362.62,-397.081 0,-254.731 -181.31,-397.078 -362.62,-397.078 -104.88,0 -187.29,41.961 -256.23,113.879"
         style="fill:#7a7d7e;fill-opacity:1;fill-rule:nonzero;stroke:none"
         id="path24"
         inkscape:connector-curvature="0" /><path
         d="m 4157.01,558.91 c 0,-121.371 -97.4,-221.769 -289.2,-221.769 -109.38,0 -196.29,25.468 -272.71,67.429 -14.98,10.489 -25.47,28.469 -25.47,49.45 0,29.968 23.97,59.929 58.44,59.929 8.99,0 16.48,-1.488 26.97,-5.988 53.94,-23.973 115.38,-44.949 203.78,-44.949 115.38,0 166.33,38.957 166.33,106.386 0,128.864 -449.52,52.442 -449.52,325.157 0,134.855 97.39,236.745 292.18,236.745 82.41,0 155.84,-14.98 217.27,-37.46 28.47,-8.99 43.46,-34.46 43.46,-56.94 0,-31.46 -25.47,-59.935 -59.94,-59.935 -7.49,0 -13.48,1.5 -19.48,3 -47.95,14.976 -104.89,26.965 -170.82,26.965 -110.88,0 -172.31,-44.95 -172.31,-104.887 0,-155.832 451.02,-49.449 451.02,-343.133"
         style="fill:#7a7d7e;fill-opacity:1;fill-rule:nonzero;stroke:none"
         id="path26"
         inkscape:connector-curvature="0" /><path
         d="m 4428.19,797.16 442.03,0 c -8.99,155.828 -125.86,218.77 -221.76,218.77 -95.9,0 -211.28,-62.942 -220.27,-218.77 z m 551.42,-338.648 c 0,-23.973 -17.99,-43.453 -38.97,-55.442 -65.92,-37.461 -131.85,-65.929 -262.21,-65.929 -244.25,0 -388.1,145.347 -388.1,397.078 0,202.289 109.39,397.081 358.13,397.081 230.75,0 356.62,-178.312 356.62,-377.601 0,-37.461 -26.97,-67.429 -68.93,-67.429 l -507.96,0 c 14.98,-134.86 100.39,-221.758 262.22,-221.758 89.9,0 146.85,17.976 202.29,46.449 8.99,4.488 16.48,5.988 26.97,5.988 31.46,0 59.94,-23.969 59.94,-58.437"
         style="fill:#7a7d7e;fill-opacity:1;fill-rule:nonzero;stroke:none"
         id="path28"
         inkscape:connector-curvature="0" /></g></g></svg>