<?xml version="1.0" encoding="UTF-8" standalone="no"?>
<!-- Created with Inkscape (http://www.inkscape.org/) -->

<svg
   xmlns:dc="http://purl.org/dc/elements/1.1/"
   xmlns:cc="http://creativecommons.org/ns#"
   xmlns:rdf="http://www.w3.org/1999/02/22-rdf-syntax-ns#"
   xmlns:svg="http://www.w3.org/2000/svg"
   xmlns="http://www.w3.org/2000/svg"
   version="1.1"
   width="373"
   height="512"
   id="svg2">
  <desc
     id="desc4">wmf2svg</desc>
  <metadata
     id="metadata80">
    <rdf:RDF>
      <cc:Work
         rdf:about="">
        <dc:format>image/svg+xml</dc:format>
        <dc:type
           rdf:resource="http://purl.org/dc/dcmitype/StillImage" />
        <dc:title></dc:title>
      </cc:Work>
    </rdf:RDF>
  </metadata>
  <defs
     id="defs78" />
  <polygon
     points="158.41128,17.01338 147.49422,2.626226 132.48323,8.563782 120.88384,24.32114 110.87653,54.694019 108.14726,85.751999 76.533234,97.398743 99.277138,99.225685 63.114334,118.40856 79.262505,120.92059 50.605186,145.35593 68.117996,143.52899 55.836285,164.53879 69.027748,162.94022 77.442986,177.32738 85.630798,199.93576 74.941162,210.66904 72.439331,225.28456 74.031403,237.61641 32.410061,298.36215 17.399086,339.46832 43.099697,405.69488 93.363724,428.30328 90.861893,442.69043 30.590549,452.73862 1.478354,467.12576 0.11372,476.26047 8.074086,476.26047 12.395428,484.71005 50.605186,470.32291 91.544212,468.72433 116.56251,468.72433 163.41495,483.7966 186.84117,495.44336 207.53813,510.74396 217.54544,507.31842 234.14848,511.65744 228.23508,492.93127 205.94604,472.83493 170.01068,462.10168 206.8558,413.23102 206.8558,367.10077 181.83751,325.99463 214.13385,292.42459 218.45519,250.40497 274.17777,225.28456 283.50275,205.87331 299.42349,224.37108 287.8241,191.48616 306.01923,204.27475 293.5101,176.41391 310.34055,183.26494 294.19238,159.74307 316.93628,139.41836 333.53937,105.84835 330.35519,80.727913 315.11679,73.876892 283.50275,74.790359 259.39423,81.641388 249.3869,66.56913 277.58936,55.607491 281.91068,43.047276 259.39423,49.669937 239.37958,52.181976 213.45152,45.330952 187.5235,41.448704 164.32471,48.756462 164.32471,48.756462 164.32471,48.756462 164.32471,48.756462 "
     id="polygon6"
     style="fill:#ffdead;fill-opacity:1;fill-rule:evenodd;stroke:none" />
  <polygon
     points="233.46617,423.27918 274.17777,418.48349 314.20703,417.57001 343.54666,424.87775 364.47107,436.06778 372.88629,458.67618 348.55032,438.57983 321.93994,434.24084 275.99725,436.06778 234.14848,447.71451 200.94238,442.00534 202.53447,417.57001 202.53447,417.57001 202.53447,417.57001 202.53447,417.57001 "
     id="polygon8"
     style="fill:#ffe4e1;fill-opacity:1;fill-rule:evenodd;stroke:none" />
  <polygon
     points="183.42958,134.62265 200.03264,140.33185 210.72226,148.78145 211.63202,155.4041 237.56007,158.82962 252.57106,169.79125 260.07654,184.17841 261.89606,199.25066 256.66495,212.49599 245.06557,219.347 232.55641,223.45761 211.63202,228.48169 182.51984,232.82069 161.82288,240.12845 143.40031,256.11417 133.393,277.35236 129.98141,303.38623 129.07164,323.48257 135.89482,344.4924 111.55885,388.1106 109.96677,412.54593 113.37836,430.13022 78.352753,424.19266 54.926529,410.71896 30.590549,387.19711 19.218599,347.91791 23.994818,315.94644 38.323479,288.99908 54.926529,268.90274 74.031403,252.00357 94.955803,241.95538 111.55885,232.82069 118.38202,221.85904 105.64543,209.29883 93.363724,189.8876 88.132629,168.87778 91.544212,153.80553 100.86921,134.62265 108.14726,129.37019 126.56982,126.85815 136.57715,128.68509 151.58812,136.22122 160.91312,141.01695 167.50885,137.13469 167.50885,137.13469 167.50885,137.13469 167.50885,137.13469 "
     id="polygon10"
     style="fill:#ffffff;fill-opacity:1;fill-rule:evenodd;stroke:none" />
  <polygon
     points="142.49056,67.482605 145.6747,49.669937 137.48689,28.660124 128.1619,37.109722 121.79361,53.095448 114.06068,74.790359 114.06068,87.578941 124.97775,86.665474 124.97775,86.665474 124.97775,86.665474 124.97775,86.665474 "
     id="polygon12"
     style="fill:#ffb6c1;fill-opacity:1;fill-rule:evenodd;stroke:none" />
  <polygon
     points="233.46617,131.19713 250.06923,132.79572 256.66495,110.18733 255.07289,93.288124 245.06557,84.153435 234.14848,83.23996 225.05093,86.665474 219.36494,97.398743 209.13019,127.77163 209.13019,127.77163 209.13019,127.77163 209.13019,127.77163 "
     id="polygon14"
     style="fill:#ffffff;fill-opacity:1;fill-rule:evenodd;stroke:none" />
  <polygon
     points="197.53081,99.910789 200.03264,83.23996 195.93872,74.790359 185.93141,70.451378 170.01068,73.876892 158.41128,84.153435 152.49786,95.800171 149.08629,105.84835 170.92044,117.49509 189.11556,119.32203 189.11556,119.32203 189.11556,119.32203 189.11556,119.32203 "
     id="polygon16"
     style="fill:#ffffff;fill-opacity:1;fill-rule:evenodd;stroke:none" />
  <polygon
     points="157.95641,6.508474 163.41495,17.926849 165.68933,44.41748 183.65703,38.708294 202.30702,38.708294 238.01495,49.441566 251.88873,48.071362 263.71558,49.441566 252.79849,54.465652 241.19911,56.520958 219.59239,50.355038 194.80154,45.330952 171.14787,52.867081 166.14421,51.953609 165.00702,56.520958 160.45824,57.434433 157.27409,32.542374 154.08995,20.438892 147.03934,10.162354 134.75763,12.674397 125.66007,21.809097 115.19788,45.787685 108.82958,81.413025 104.05336,79.129341 103.1436,72.506691 104.28079,58.119534 107.46494,40.30687 114.06068,24.092773 124.52286,10.847457 131.57347,5.595004 139.76129,1.256021 146.8119,0.114184 146.8119,0.114184 146.8119,0.114184 146.8119,0.114184 "
     id="polygon18"
     style="fill:#000000;fill-opacity:1;fill-rule:evenodd;stroke:none" />
  <polygon
     points="148.40398,32.542374 150.22348,50.583408 145.44727,67.710968 140.67105,74.790359 134.07532,80.271187 126.34239,78.444244 125.66007,72.963417 129.07164,66.340759 134.30275,60.859947 135.43994,42.362175 132.93811,24.092773 141.35336,16.785013 141.35336,16.785013 141.35336,16.785013 141.35336,16.785013 "
     id="polygon20"
     style="fill:#000000;fill-opacity:1;fill-rule:evenodd;stroke:none" />
  <polygon
     points="281.45581,51.268505 281.68326,55.379124 278.27167,60.174839 272.81311,62.915249 260.9863,68.396072 264.39789,76.160568 290.09851,69.994644 317.16373,67.710968 333.53937,75.703835 341.04483,91.917931 340.13507,111.32916 336.72348,120.2355 331.94727,127.77163 325.12412,137.13469 316.48145,144.89918 307.38385,151.52184 299.19605,157.23103 292.82776,151.29349 293.73752,147.86797 298.28629,145.58429 321.25763,120.69224 326.03388,104.70651 323.75946,87.578941 317.16373,79.586082 307.15643,78.215874 284.63995,80.271187 264.62534,84.610161 255.7552,84.153435 249.84178,75.932198 246.88507,71.593216 240.28934,69.766281 234.83081,68.167702 235.74057,62.915249 275.54242,49.669937 275.54242,49.669937 275.54242,49.669937 275.54242,49.669937 "
     id="polygon22"
     style="fill:#000000;fill-opacity:1;fill-rule:evenodd;stroke:none" />
  <polygon
     points="200.71495,52.181976 205.26373,60.859947 186.84117,64.970566 178.42592,69.30954 169.32837,72.27832 165.00702,69.30954 169.32837,62.915249 175.92409,58.119534 190.48019,50.811771 190.48019,50.811771 190.48019,50.811771 190.48019,50.811771 "
     id="polygon24"
     style="fill:#000000;fill-opacity:1;fill-rule:evenodd;stroke:none" />
  <polygon
     points="186.15884,91.461189 186.38629,95.343437 186.15884,100.13915 182.51984,109.50223 176.60641,115.66815 167.73628,113.8412 163.86983,106.07671 164.55215,96.942017 170.23811,90.547722 169.78325,96.485275 172.28508,100.13915 176.83385,93.744865 180.70032,86.20874 180.70032,86.20874 180.70032,86.20874 180.70032,86.20874 "
     id="polygon26"
     style="fill:#000000;fill-opacity:1;fill-rule:evenodd;stroke:none" />
  <polygon
     points="122.47592,86.665474 129.29909,87.807312 132.02835,93.744865 115.42532,92.374657 101.55154,96.942017 107.46494,101.73773 102.46129,108.13202 69.027748,121.83407 66.525917,116.35325 69.027748,112.69937 79.262505,107.44692 88.587509,101.9661 89.724701,98.768951 84.721046,97.855484 78.807625,100.13915 82.446648,93.744865 89.952141,91.004456 106.32775,87.122208 106.32775,87.122208 106.32775,87.122208 106.32775,87.122208 "
     id="polygon28"
     style="fill:#000000;fill-opacity:1;fill-rule:evenodd;stroke:none" />
  <polygon
     points="321.03021,93.744865 318.30093,100.82426 311.25034,100.59589 302.60764,98.083855 294.41983,98.997322 285.09485,101.28099 283.04788,104.47814 286.68692,106.99018 285.32227,113.1561 281.45581,116.80998 278.49908,127.77163 276.45215,137.81979 268.49176,136.67795 259.84909,135.07939 260.9863,114.75468 265.30765,106.30508 273.95032,100.36752 286.68692,92.374657 300.78812,88.264046 300.78812,88.264046 300.78812,88.264046 300.78812,88.264046 "
     id="polygon30"
     style="fill:#000000;fill-opacity:1;fill-rule:evenodd;stroke:none" />
  <polygon
     points="231.8741,112.24264 233.23874,115.89651 238.46983,113.1561 240.28934,101.50936 246.88507,106.30508 248.02226,114.98305 245.52043,124.80285 240.97166,132.11061 230.96436,131.65387 221.4119,127.77163 224.14117,117.49509 226.87044,106.76182 230.73691,101.50936 230.73691,101.50936 230.73691,101.50936 230.73691,101.50936 "
     id="polygon32"
     style="fill:#000000;fill-opacity:1;fill-rule:evenodd;stroke:none" />
  <polygon
     points="87.45031,127.08652 83.811279,133.48082 76.760674,139.19 70.16494,143.52899 60.157627,150.15164 54.471649,144.44244 68.117996,133.02408 74.941162,126.85815 82.219215,122.29081 82.219215,122.29081 82.219215,122.29081 82.219215,122.29081 "
     id="polygon34"
     style="fill:#000000;fill-opacity:1;fill-rule:evenodd;stroke:none" />
  <polygon
     points="150.45093,142.84389 148.17653,149.0098 149.31374,159.97145 158.63873,170.93309 164.55215,175.0437 171.60275,177.55574 175.01433,169.33452 171.14787,161.11328 163.86983,143.07225 177.97104,156.31757 185.24908,161.34166 194.34666,159.74307 203.67166,157.4594 212.54178,157.91614 204.80885,165.45227 195.02898,171.38983 179.10825,186.69045 170.46556,184.40677 162.73262,182.57982 137.25946,159.28633 135.43994,155.86084 131.11861,155.4041 122.24848,156.54594 126.56982,150.83675 133.16556,147.6396 146.8119,139.87511 146.8119,139.87511 146.8119,139.87511 146.8119,139.87511 "
     id="polygon36"
     style="fill:#000000;fill-opacity:1;fill-rule:evenodd;stroke:none" />
  <polygon
     points="79.717384,151.52184 73.803963,157.68777 61.749702,171.16145 59.020432,171.84656 58.110672,167.05083 59.020432,162.94022 64.478973,155.63246 72.666771,149.6949 80.172256,144.21408 80.172256,144.21408 80.172256,144.21408 80.172256,144.21408 "
     id="polygon38"
     style="fill:#000000;fill-opacity:1;fill-rule:evenodd;stroke:none" />
  <polygon
     points="287.8241,157.68777 301.92532,180.06778 293.28262,175.27206 284.41251,165.45227 264.85275,144.21408 264.85275,144.21408 264.85275,144.21408 264.85275,144.21408 "
     id="polygon40"
     style="fill:#000000;fill-opacity:1;fill-rule:evenodd;stroke:none" />
  <polygon
     points="83.356407,169.56288 86.31311,181.20962 91.544212,190.34431 98.594826,198.79393 106.55519,206.33005 114.28812,213.40944 111.55885,219.347 105.64543,219.80374 95.865555,211.35414 82.901527,199.25066 75.850922,183.95004 67.663116,180.98126 68.572868,173.90187 74.48629,165.68063 81.309456,159.74307 81.309456,159.74307 81.309456,159.74307 81.309456,159.74307 "
     id="polygon42"
     style="fill:#000000;fill-opacity:1;fill-rule:evenodd;stroke:none" />
  <polygon
     points="289.64362,180.98126 300.33325,198.33719 300.33325,199.25066 292.14545,198.33719 286.91434,191.48616 281.68326,183.4933 274.17777,178.01248 274.63266,167.2792 274.63266,167.2792 274.63266,167.2792 274.63266,167.2792 "
     id="polygon44"
     style="fill:#000000;fill-opacity:1;fill-rule:evenodd;stroke:none" />
  <polygon
     points="232.32898,178.46922 238.9247,188.28902 235.28569,192.39964 230.73691,188.28902 225.96069,184.40677 220.7296,188.51738 205.26373,194.68332 190.93507,188.97412 190.93507,186.23372 209.81251,183.03656 224.82349,171.61819 225.50581,170.70473 225.50581,170.70473 225.50581,170.70473 225.50581,170.70473 "
     id="polygon46"
     style="fill:#000000;fill-opacity:1;fill-rule:evenodd;stroke:none" />
  <polygon
     points="286.23203,201.99107 291.918,215.00803 293.73752,222.54414 283.50275,220.26048 277.81677,226.65475 271.44849,232.13557 257.34726,241.04192 241.65398,247.20784 225.27837,251.31845 221.4119,256.11417 223.91373,262.05173 228.00764,276.43887 225.05093,293.56647 220.2747,300.41745 214.13385,306.35501 200.26007,317.77341 187.97836,330.33362 195.48384,338.32648 203.89909,347.91791 212.76923,363.4469 215.72594,381.03122 214.58873,399.52899 210.94971,417.57001 236.65031,421.22388 263.26068,419.62531 316.70886,418.94022 317.16373,420.31039 262.35092,422.36572 235.05824,425.10614 207.53813,423.73593 203.44421,427.84653 204.35397,433.55576 207.99301,436.98126 211.40459,433.78409 217.54544,439.26492 221.63934,436.06778 228.23508,439.49329 232.78386,436.75287 237.56007,435.83939 237.10519,440.40674 240.0619,441.32022 243.70093,434.69757 248.93202,439.49329 253.02591,436.52454 256.66495,432.87061 262.12351,437.66635 264.62534,432.41388 269.629,430.35858 269.85642,434.92593 272.58569,435.83939 275.08752,429.21674 282.13812,431.50043 285.77716,427.84653 289.87103,425.56287 292.60034,428.76001 294.87469,431.72879 297.83142,428.76001 301.92532,426.24795 306.92895,431.0437 311.93262,428.07492 318.30093,431.72879 322.39484,427.3898 326.48874,433.32736 332.17471,428.53165 337.40579,433.32736 341.04483,428.9884 345.82105,434.92593 351.96191,433.78409 356.96558,438.12308 362.42413,440.17841 369.24728,448.3996 372.65888,459.36127 356.28323,444.74573 347.64056,438.80817 336.0412,439.03656 305.56436,437.20963 275.99725,442.00534 234.83081,447.48618 194.5741,441.54861 187.06862,449.9982 180.24544,457.7627 189.79788,463.92862 200.94238,469.40942 220.7296,483.56821 233.23874,509.14535 224.59605,493.15964 219.13751,485.16681 210.94971,479.22925 198.44055,471.92148 184.79422,467.81085 156.59178,462.10168 156.1369,461.64496 170.69299,449.31308 183.42958,435.1543 200.03264,402.49777 201.85214,368.47098 195.93872,351.80017 190.70763,344.26404 184.56679,336.72791 172.05763,321.19891 170.01068,294.70828 179.33568,285.11685 188.20579,275.29703 189.343,284.20337 182.74725,292.42459 176.60641,300.87421 179.10825,310.00891 196.16617,300.64584 208.22043,283.06155 211.40459,263.87866 208.22043,255.2007 201.39726,247.89293 176.83385,243.09723 181.61008,236.24618 189.343,236.47456 207.31068,239.67171 245.97531,232.13557 263.4881,223.00089 279.18143,210.21231 276.6796,192.62799 276.6796,192.62799 276.6796,192.62799 276.6796,192.62799 "
     id="polygon48"
     style="fill:#000000;fill-opacity:1;fill-rule:evenodd;stroke:none" />
  <polygon
     points="84.038719,204.27475 82.219215,210.44067 76.305794,225.7413 75.396042,229.85191 78.580193,232.13557 84.038719,225.28456 93.818604,224.59946 90.634453,232.59232 86.085678,239.44334 74.258842,252.23192 61.067379,264.79215 50.150311,279.40765 39.915554,294.25156 31.045431,310.92236 26.496647,335.3577 22.402744,359.56467 16.71677,352.71362 14.669818,343.35055 14.897257,322.34076 18.991159,310.69403 23.994818,299.73236 29.908234,288.77072 36.731407,278.49417 44.009453,268.21765 51.969822,258.39783 60.612503,249.26314 69.255188,239.90007 65.388725,225.28456 69.71006,210.21231 73.121651,205.41658 78.125313,201.53433 78.125313,201.53433 78.125313,201.53433 78.125313,201.53433 "
     id="polygon50"
     style="fill:#000000;fill-opacity:1;fill-rule:evenodd;stroke:none" />
  <polygon
     points="139.53384,226.88313 140.89848,234.41925 131.34605,232.13557 131.57347,224.59946 131.57347,224.59946 131.57347,224.59946 131.57347,224.59946 "
     id="polygon52"
     style="fill:#000000;fill-opacity:1;fill-rule:evenodd;stroke:none" />
  <polygon
     points="163.1875,239.67171 161.82288,243.32558 153.40764,250.40497 133.84788,291.05441 132.48323,337.18466 124.97775,331.47543 123.38568,318.91522 124.29542,295.16504 129.75397,272.09992 134.53018,261.595 140.67105,252.46031 148.40398,244.23906 157.72897,237.61641 157.72897,237.61641 157.72897,237.61641 157.72897,237.61641 "
     id="polygon54"
     style="fill:#000000;fill-opacity:1;fill-rule:evenodd;stroke:none" />
  <polygon
     points="154.77226,341.52362 152.95274,345.86261 147.49422,348.14627 132.48323,362.30508 122.9308,379.88937 113.83324,418.71185 117.92714,439.03656 108.82958,430.35858 104.28079,418.71185 106.32775,393.36307 112.92348,368.69934 118.60946,357.50934 125.43263,348.83139 136.3497,341.06689 147.72165,335.58606 147.72165,335.58606 147.72165,335.58606 147.72165,335.58606 "
     id="polygon56"
     style="fill:#000000;fill-opacity:1;fill-rule:evenodd;stroke:none" />
  <polygon
     points="30.363111,369.1561 35.139332,377.37732 39.46067,387.19711 45.601528,395.18997 55.608845,404.7814 65.388725,412.31754 76.533234,418.2551 88.814941,422.59409 89.497261,427.3898 84.493607,428.53165 72.439331,426.01962 54.699085,417.57001 38.778355,403.63959 26.496647,386.28363 19.673477,367.78589 22.175306,364.36038 22.175306,364.36038 22.175306,364.36038 22.175306,364.36038 "
     id="polygon58"
     style="fill:#000000;fill-opacity:1;fill-rule:evenodd;stroke:none" />
  <polygon
     points="102.46129,439.49329 95.865555,439.03656 94.728363,435.38266 98.822266,432.41388 98.822266,432.41388 98.822266,432.41388 98.822266,432.41388 "
     id="polygon60"
     style="fill:#000000;fill-opacity:1;fill-rule:evenodd;stroke:none" />
  <polygon
     points="93.363724,441.77695 91.31678,445.43085 79.489944,447.48618 42.417381,452.28186 8.074086,464.38534 17.399086,455.7074 29.680794,450.91165 55.836285,444.74573 88.814941,437.89471 88.814941,437.89471 88.814941,437.89471 88.814941,437.89471 "
     id="polygon62"
     style="fill:#000000;fill-opacity:1;fill-rule:evenodd;stroke:none" />
  <polygon
     points="124.29542,452.05353 114.97044,449.31308 114.06068,444.97409 118.38202,442.46207 118.38202,442.46207 118.38202,442.46207 118.38202,442.46207 "
     id="polygon64"
     style="fill:#000000;fill-opacity:1;fill-rule:evenodd;stroke:none" />
  <polygon
     points="131.11861,459.81799 127.93446,467.58252 127.93446,468.49594 169.5558,482.42639 189.343,492.70294 207.08325,507.54684 204.35397,511.8858 200.4875,510.97232 193.20946,502.52274 184.79422,497.0419 175.92409,492.70294 156.59178,485.62354 118.15459,474.20517 122.9308,456.62085 122.9308,456.62085 122.9308,456.62085 122.9308,456.62085 "
     id="polygon66"
     style="fill:#000000;fill-opacity:1;fill-rule:evenodd;stroke:none" />
  <polygon
     points="34.229576,464.38534 34.229576,465.07047 6.482012,478.54413 9.211281,472.6066 14.669818,468.72433 26.496647,464.38534 26.496647,464.38534 26.496647,464.38534 26.496647,464.38534 "
     id="polygon68"
     style="fill:#000000;fill-opacity:1;fill-rule:evenodd;stroke:none" />
  <polygon
     points="106.78262,465.52716 102.46129,469.63782 97.457626,472.14984 85.403358,472.6066 60.839943,474.89026 27.633844,483.56821 17.399086,480.14273 29.680794,473.74841 42.872257,469.86615 70.39238,464.38534 70.39238,464.38534 70.39238,464.38534 70.39238,464.38534 "
     id="polygon70"
     style="fill:#000000;fill-opacity:1;fill-rule:evenodd;stroke:none" />
  <polygon
     points="210.26739,489.5058 225.05093,509.37372 218.22777,509.83047 212.54178,504.12128 207.08325,496.35678 200.71495,490.64761 193.66434,485.16681 185.93141,481.51291 185.93141,480.82782 188.20579,478.54413 188.20579,478.54413 188.20579,478.54413 188.20579,478.54413 "
     id="polygon72"
     style="fill:#000000;fill-opacity:1;fill-rule:evenodd;stroke:none" />
  <polygon
     points="288.50644,92.374657 308.52106,93.973236 320.12045,101.73773 316.93628,115.89651 305.10947,129.37019 287.8241,141.01695 276.6796,143.52899 262.57837,135.30775 270.08386,105.16324 270.08386,105.16324 270.08386,105.16324 270.08386,105.16324 "
     id="polygon74"
     style="fill:#ffb6c1;fill-opacity:1;fill-rule:evenodd;stroke:none" />
</svg>
