<?xml version="1.0" encoding="UTF-8" standalone="no"?>
<!-- Created with Inkscape (http://www.inkscape.org/) -->

<svg
   xmlns:dc="http://purl.org/dc/elements/1.1/"
   xmlns:cc="http://creativecommons.org/ns#"
   xmlns:rdf="http://www.w3.org/1999/02/22-rdf-syntax-ns#"
   xmlns:svg="http://www.w3.org/2000/svg"
   xmlns="http://www.w3.org/2000/svg"
   xmlns:sodipodi="http://sodipodi.sourceforge.net/DTD/sodipodi-0.dtd"
   xmlns:inkscape="http://www.inkscape.org/namespaces/inkscape"
   version="1.1"
   width="55.299999"
   height="111.1"
   id="svg3000"
   inkscape:version="0.48.3.1 r9886"
   sodipodi:docname="integ.svg">
  <sodipodi:namedview
     pagecolor="#ffffff"
     bordercolor="#666666"
     borderopacity="1"
     objecttolerance="10"
     gridtolerance="10"
     guidetolerance="10"
     inkscape:pageopacity="0"
     inkscape:pageshadow="2"
     inkscape:window-width="1286"
     inkscape:window-height="762"
     id="namedview7"
     showgrid="false"
     inkscape:zoom="2.1242125"
     inkscape:cx="-57.55805"
     inkscape:cy="55.549999"
     inkscape:window-x="2183"
     inkscape:window-y="280"
     inkscape:window-maximized="0"
     inkscape:current-layer="svg3000" />
  <defs
     id="defs3" />
  <metadata
     id="metadata4">
    <rdf:RDF>
      <cc:Work
         rdf:about="">
        <dc:format>image/svg+xml</dc:format>
        <dc:type
           rdf:resource="http://purl.org/dc/dcmitype/StillImage" />
        <dc:title></dc:title>
      </cc:Work>
    </rdf:RDF>
  </metadata>
  <path
     inkscape:connector-curvature="0"
     style="fill:#ffccaa;stroke:#d40000;stroke-width:2;stroke-linecap:round;stroke-linejoin:round;stroke-miterlimit:4;stroke-dasharray:none"
     id="path3270"
     d="m 55.3,8.3 c 0,3 -2.2,4.3 -4.2,4.3 C 49.2,12.6 47,11.3 47,8.4 47,7 47.8,4.7 50.7,4.3 48.5,2.4 45.4,2.2 44.4,2.2 39.9,2.2 36.5,4.7 35.1,23.1 L 33.2,48 c -0.8,11.1 -4.4,40.2 -5.7,45.4 -2.2,9 -7,17.7 -16.5,17.7 -6,0 -11,-3.5 -11,-8.3 0,-3 2.2,-4.3 4.2,-4.3 1.9,0 4.1,1.3 4.1,4.2 0,1.4 -0.8,3.7 -3.7,4.1 2.1,1.8 5.1,2.1 6.4,2.1 5.7,0 9.3,-4.5 10.6,-20.9 L 23.5,63.1 C 24.4,51 28,22.8 29.2,17.3 30.9,9.7 34.8,0 44.3,0 c 6,0 11,3.5 11,8.3 z" />
</svg>
