<?xml version="1.0" encoding="UTF-8" standalone="no"?>
<!-- Created with Inkscape (http://www.inkscape.org/) -->

<svg
   xmlns:dc="http://purl.org/dc/elements/1.1/"
   xmlns:cc="http://creativecommons.org/ns#"
   xmlns:rdf="http://www.w3.org/1999/02/22-rdf-syntax-ns#"
   xmlns:svg="http://www.w3.org/2000/svg"
   xmlns="http://www.w3.org/2000/svg"
   xmlns:sodipodi="http://sodipodi.sourceforge.net/DTD/sodipodi-0.dtd"
   xmlns:inkscape="http://www.inkscape.org/namespaces/inkscape"
   width="49.900002"
   height="111.1"
   id="svg3000"
   version="1.1"
   inkscape:version="0.48.3.1 r9886"
   sodipodi:docname="integ_2.svg">
  <defs
     id="defs3002" />
  <sodipodi:namedview
     id="base"
     pagecolor="#ffffff"
     bordercolor="#666666"
     borderopacity="1.0"
     inkscape:pageopacity="0.0"
     inkscape:pageshadow="2"
     inkscape:zoom="3.959798"
     inkscape:cx="7.7602169"
     inkscape:cy="67.206394"
     inkscape:document-units="px"
     inkscape:current-layer="layer1"
     showgrid="false"
     fit-margin-top="0"
     fit-margin-left="0"
     fit-margin-right="0"
     fit-margin-bottom="0"
     inkscape:window-width="1205"
     inkscape:window-height="837"
     inkscape:window-x="2027"
     inkscape:window-y="23"
     inkscape:window-maximized="0" />
  <metadata
     id="metadata3005">
    <rdf:RDF>
      <cc:Work
         rdf:about="">
        <dc:format>image/svg+xml</dc:format>
        <dc:type
           rdf:resource="http://purl.org/dc/dcmitype/StillImage" />
        <dc:title></dc:title>
      </cc:Work>
    </rdf:RDF>
  </metadata>
  <g
     inkscape:label="Layer 1"
     inkscape:groupmode="layer"
     id="layer1"
     transform="translate(-415.05,-422.52647)">
    <path
       style="fill:none;stroke-width:2;stroke-miterlimit:4;stroke-dasharray:none;stroke:#ff0000;stroke-opacity:1;fill-opacity:1;stroke-linejoin:round;stroke-linecap:round"
       inkscape:connector-curvature="0"
       d="m 426.15,533.62647 c -5.4,0 -11.1,-3 -11.1,-8.5 0,-2.7 2.1,-4.1 4.2,-4.1 2.1,0 4.2,1.4 4.2,4.1 0,2.6 -1.9,4 -3.8,4.2 1.6,1.3 3.9,2.1 6.5,2.1 7.8,0 9.7,-10 9.7,-20.7 v -65.3 c 0,-11.6 6.8,-22.9 18,-22.9 5.4,0 11.1,3 11.1,8.5 0,2.8 -2.1,4.1 -4.2,4.1 -2.1,0 -4.2,-1.3 -4.2,-4.1 0,-2.6 1.9,-4 3.8,-4.2 -1.6,-1.3 -3.9,-2.1 -6.5,-2.1 -7.8,0 -9.7,10.1 -9.7,20.7 v 65.3 c 0,11.6 -6.8,22.9 -18,22.9 z"
       id="path3106" />
  </g>
</svg>
